#VRML V2.0 utf8
Transform { translation 0.0000 0.0000 0.1181
  children Shape {
    appearance Appearance { material Material { diffuseColor 0.05 0.2 0.55 specularColor 0.5 0.5 0.5 shininess 0.2 } }
    geometry Box { size 5.5118 3.9370 0.2362 } } }
Transform { translation -0.8268 0.0000 0.4331
  children Shape {
    appearance Appearance { material Material { diffuseColor 0.78 0.78 0.8 specularColor 0.5 0.5 0.5 shininess 0.6 } }
    geometry Box { size 3.6220 3.6220 0.3937 } } }
Transform { translation 1.4173 -1.4173 0.3543
  children Shape {
    appearance Appearance { material Material { diffuseColor 0.85 0.75 0.4 specularColor 0.5 0.5 0.5 shininess 0.6 } }
    geometry Box { size 0.7874 0.7874 0.2362 } } }
