#VRML V2.0 utf8
Transform { translation 0.0000 0.0000 0.1181
  children Shape {
    appearance Appearance { material Material { diffuseColor 0.05 0.2 0.55 specularColor 0.5 0.5 0.5 shininess 0.2 } }
    geometry Box { size 3.1102 2.4803 0.2362 } } }
Transform { translation -0.4134 0.0000 0.4626
  children Shape {
    appearance Appearance { material Material { diffuseColor 0.78 0.78 0.8 specularColor 0.5 0.5 0.5 shininess 0.6 } }
    geometry Box { size 2.1260 2.2441 0.4528 } } }
Transform { translation 1.2402 0.8661 0.3248
  children Shape {
    appearance Appearance { material Material { diffuseColor 0.1 0.1 0.12 specularColor 0.5 0.5 0.5 shininess 0.2 } }
    geometry Box { size 0.4331 0.2362 0.1772 } } }
