#VRML V2.0 utf8
Transform { translation 0.0000 -0.2362 0.9350
  children Shape {
    appearance Appearance { material Material { diffuseColor 0.93 0.92 0.86 specularColor 0.5 0.5 0.5 shininess 0.2 } }
    geometry Box { size 3.1102 2.9921 1.8701 } } }
Transform { translation 0.0000 -1.3386 0.9843
  children Shape {
    appearance Appearance { material Material { diffuseColor 0.55 0.54 0.5 specularColor 0.5 0.5 0.5 shininess 0.2 } }
    geometry Box { size 2.2047 0.8268 1.1811 } } }
Transform { translation -0.3937 1.1220 0.0492
  children Shape {
    appearance Appearance { material Material { diffuseColor 0.85 0.75 0.4 specularColor 0.5 0.5 0.5 shininess 0.6 } }
    geometry Box { size 0.2362 1.0236 0.0984 } } }
Transform { translation 0.3937 1.1220 0.0492
  children Shape {
    appearance Appearance { material Material { diffuseColor 0.85 0.75 0.4 specularColor 0.5 0.5 0.5 shininess 0.6 } }
    geometry Box { size 0.2362 1.0236 0.0984 } } }
Transform { translation -1.3189 -1.1417 0.0591
  children Shape {
    appearance Appearance { material Material { diffuseColor 0.8 0.8 0.82 specularColor 0.5 0.5 0.5 shininess 0.6 } }
    geometry Box { size 0.4724 1.1811 0.1181 } } }
Transform { translation 1.3189 -1.1417 0.0591
  children Shape {
    appearance Appearance { material Material { diffuseColor 0.8 0.8 0.82 specularColor 0.5 0.5 0.5 shininess 0.6 } }
    geometry Box { size 0.4724 1.1811 0.1181 } } }
